<?xml version="1.0" encoding="UTF-8" standalone="no"?>
<!-- Created with Inkscape (http://www.inkscape.org/) -->

<svg
   width="100mm"
   height="100mm"
   viewBox="0 0 100 100"
   version="1.1"
   id="svg1"
   xml:space="preserve"
   inkscape:version="1.4.2 (ebf0e940, 2025-05-08)"
   sodipodi:docname="favicon.svg"
   xmlns:inkscape="http://www.inkscape.org/namespaces/inkscape"
   xmlns:sodipodi="http://sodipodi.sourceforge.net/DTD/sodipodi-0.dtd"
   xmlns="http://www.w3.org/2000/svg"
   xmlns:svg="http://www.w3.org/2000/svg"><sodipodi:namedview
     id="namedview1"
     pagecolor="#ffffff"
     bordercolor="#000000"
     borderopacity="0.25"
     inkscape:showpageshadow="2"
     inkscape:pageopacity="0.0"
     inkscape:pagecheckerboard="0"
     inkscape:deskcolor="#d1d1d1"
     inkscape:document-units="mm"
     inkscape:zoom="1.4823793"
     inkscape:cx="175.3937"
     inkscape:cy="220.92861"
     inkscape:window-width="1680"
     inkscape:window-height="934"
     inkscape:window-x="1920"
     inkscape:window-y="61"
     inkscape:window-maximized="1"
     inkscape:current-layer="layer1" /><defs
     id="defs1" /><g
     inkscape:label="Layer 1"
     inkscape:groupmode="layer"
     id="layer1"><path
       style="fill:#f2f2f2;fill-opacity:1;stroke-width:0.96997"
       d="m 12.097275,97.213316 c -4.0307902,-0.572614 -7.0077706,-2.42213 -9.2653364,-5.756295 -2.87048088,-4.239367 -2.88045144,-9.37908 -0.026984,-13.909174 1.7219017,-2.733651 3.3612147,-6.102909 7.4376894,-7.162519 1.13828,-0.295882 3.920473,-0.416856 3.971175,-0.461141 0.571914,-0.388431 -2.485562,-1.662622 -2.850625,-2.119873 -1.09917,-1.376758 -0.886243,-1.127806 -1.210668,-2.963815 -1.0456301,-5.917474 3.30972,-13.10285 9.747733,-13.630817 4.30551,-0.353085 5.093923,-2.698247 2.342749,-8.775879 0.007,-2.80715 1.425414,-6.006443 3.65719,-8.248524 9.258345,-7.088798 9.538485,1.048915 8.299202,-9.819882 -0.349108,-4.467702 3.903696,-5.05858 3.640127,-8.938102 1.428911,-3.243414 -2.458955,-7.419416 -2.802854,-7.5709976 -2.670111,-1.1769121 11.383846,0.191607 15.309425,1.1412274 8.564078,2.0716952 14.721979,6.6944942 16.007439,12.0169312 0.403519,1.670755 0.329487,5.000613 -0.158289,7.119561 -0.30005,1.30346 -0.351904,1.978004 -0.165716,2.155729 0.149036,0.142264 1.084322,0.433166 2.078419,0.646447 3.591238,0.770499 5.962271,2.281032 7.769124,4.949532 1.534878,2.266838 2.134254,4.434631 2.005162,7.252133 -0.09332,2.037581 -0.219575,2.53465 -1.062422,4.184073 -0.499166,1.227512 -0.47053,2.392964 0.907159,2.459157 2.723324,0.136443 5.725232,2.034416 7.274409,4.185023 9.123145,12.665004 -2.784451,9.598132 1.47233,14.509669 3.222872,3.718598 3.651058,2.242232 8.533376,6.953085 2.582922,2.492204 3.936115,5.625554 3.930755,9.101734 -0.0056,3.141245 -0.80523,5.388552 -2.851936,8.007487 -1.23803,1.584184 -4.13852,3.528758 -6.319614,4.236861 l -1.726348,0.56046 -37.29983,0.03429 C 30.225204,97.388561 12.835925,97.31813 12.097272,97.213193 Z"
       id="path9-9"
       sodipodi:nodetypes="cssscssscsccssssssscssssscsscscc" /><path
       style="fill:#000000;stroke-width:0.881515"
       d="m 62.385123,64.555961 c -1.379642,-0.424837 -2.8782,-1.870955 -3.621687,-3.494953 -0.722711,-1.578609 -0.821238,-4.293787 -0.221349,-6.099885 0.816688,-2.4588 3.134845,-4.267986 5.468693,-4.267986 2.26039,0 4.094656,1.270029 5.195184,3.597103 0.84852,1.794186 1.022875,3.051931 0.677119,4.884395 -0.527835,2.797384 -2.082404,4.733959 -4.347344,5.415599 -1.327941,0.399653 -1.756622,0.39499 -3.150616,-0.03429 z"
       id="path11" /><path
       style="fill:#000000;stroke-width:0.881515"
       d="m 34.17857,65.160663 c -2.87233,-1.518657 -4.324045,-5.254273 -3.387064,-8.715756 1.59192,-5.881015 8.158213,-6.677788 10.880906,-1.320318 0.788339,1.55122 0.901102,4.554997 0.237109,6.315832 -0.616708,1.635422 -1.825186,3.062631 -3.126814,3.692739 -1.30302,0.630777 -3.438995,0.643532 -4.604137,0.0275 z"
       id="path10" /><path
       style="fill:#833b15;fill-opacity:1;stroke-width:0.881515"
       d="M 16.323546,94.077692 C 12.744527,93.545054 10.101207,91.824645 8.0966689,88.723236 5.5479115,84.779811 5.5390585,79.998894 8.0727093,75.785039 9.6016207,73.24222 11.825567,71.718062 15.445151,70.732422 c 1.010701,-0.275226 1.874478,-0.53411 1.919497,-0.575303 0.04505,-0.04116 -0.183338,-0.422898 -0.507485,-0.84823 -0.975974,-1.280647 -1.972334,-3.636277 -2.260398,-5.344116 -0.928436,-5.504385 3.070754,-11.362921 8.655207,-12.679271 1.31835,-0.310758 4.642977,-0.505192 4.642977,-0.271535 0,0.04818 -0.266438,0.690074 -0.592096,1.426435 -2.370342,5.359757 -1.423648,11.591445 2.341357,15.412206 3.979073,4.03801 9.552357,4.036583 13.527587,-0.0035 1.699191,-1.726888 2.741468,-3.772912 3.28271,-6.444044 1.230243,-6.071481 -1.379766,-11.915586 -6.37928,-14.283962 -1.437364,-0.680908 -1.762582,-0.742846 -3.90046,-0.742846 -2.096226,0 -2.470447,0.06782 -3.696502,0.669831 -0.750284,0.368408 -1.919668,1.234291 -2.598628,1.924182 -0.678961,0.689894 -1.387002,1.254352 -1.573426,1.254352 -1.128789,0 -2.980386,-4.423018 -2.974066,-7.104339 0.0062,-2.61119 1.265654,-5.587143 3.247292,-7.672708 2.101876,-2.212103 4.536516,-3.181993 7.987517,-3.181993 1.372149,0 2.056778,-0.08763 2.056778,-0.263274 0,-0.144802 -0.362805,-0.66485 -0.806226,-1.155662 -1.384322,-1.532279 -1.861239,-2.689077 -1.869041,-4.533443 -0.0092,-2.173614 0.909363,-4.069195 3.181962,-6.56647 0.913479,-1.003783 1.802902,-2.162794 1.97649,-2.57558 0.649615,-1.544705 0.292434,-3.668069 -0.947417,-5.632117 -0.331556,-0.525223 -0.602834,-1.020167 -0.602834,-1.099874 0,-0.370337 7.243174,0.695672 10.728775,1.579 7.604216,1.927073 13.071939,6.227162 14.213325,11.178048 0.358292,1.554122 0.292558,4.651527 -0.140549,6.622554 -0.26642,1.212469 -0.312462,1.839923 -0.147143,2.005242 0.132334,0.132333 0.962791,0.402927 1.845471,0.601319 3.188732,0.716712 5.29402,2.121796 6.898361,4.604013 1.362849,2.108593 1.895046,4.125057 1.780423,6.745872 -0.08286,1.895341 -0.194966,2.35771 -0.943346,3.891989 -1.310787,2.687296 -1.091439,2.623952 -2.965259,0.856281 -3.528239,-3.328358 -7.071085,-4.02686 -10.895795,-2.148196 -4.120167,2.023786 -6.613622,6.821166 -6.304201,12.129178 0.28532,4.894447 2.732046,8.810147 6.687792,10.703034 1.367707,0.654472 1.732787,0.725443 3.731747,0.725443 1.999038,0 2.366507,-0.0714 3.757494,-0.730521 2.595552,-1.22982 5.017877,-4.180675 6.005677,-7.316057 0.987261,-3.133691 0.715922,-6.672042 -0.793849,-10.351806 -0.17,-0.414341 -0.06805,-0.433456 1.791433,-0.335857 2.418094,0.126917 4.494054,1.006809 6.249539,2.64886 4.22386,3.950927 4.954539,9.779963 1.866124,14.887137 l -0.865648,1.431484 2.068625,0.507709 c 2.623452,0.643876 4.176982,1.482241 5.815164,3.138142 2.293424,2.318227 3.494961,5.232843 3.490198,8.466356 -0.0044,2.921959 -0.714981,5.012385 -2.532291,7.448496 -1.099276,1.473594 -3.674676,3.28242 -5.611312,3.941088 l -1.532859,0.521337 -33.119266,0.03191 c -18.215599,0.01755 -33.655888,-0.04795 -34.311752,-0.145574 z m 39.209673,-3.24008 c 3.992189,-1.189085 7.89695,-3.804101 10.418604,-6.977336 2.37571,-2.989572 4.326919,-7.665966 3.434402,-8.231106 -0.439312,-0.278171 -37.330485,-0.2761 -38.062311,0.0018 -0.913849,0.34745 -0.899339,1.01957 0.06461,2.991097 3.036309,6.210161 8.348241,10.821924 14.331739,12.442633 2.258143,0.611658 7.395623,0.492583 9.812976,-0.22743 z"
       id="path9" /></g></svg>
